<?xml version="1.0" encoding="UTF-8"?><svg id="a" xmlns="http://www.w3.org/2000/svg" width="423.93" height="326.77" viewBox="0 0 423.93 326.77"><path d="m282.94,326.77c-12.93-18.77-13.65-68.6-27.29-77.02-2.74-2.29-3.85-6.59-2.64-9.89,3.89-19.02-10.69-37.99-9.15-57.25,12.62-9.51,11.92,28.87,16.22,36.33.34,12.75,15.69,8.88,13.94,22.72.51,5.2-6.53,6.18-4.84,11.23,8.07,24.08,11.73,49.16,16.76,73.87h-3Z" fill="#a75689" stroke-width="0"/><path d="m0,265.81c14.38-7.09,26.26-6.9,41.59-5.06,5.91.2,10.16,6.1,16.93,4.6,1.07,0,2.6-.4,2.75,1.28-1.79,5.29-11.91-1.29-12.38,7.03-1.92,9.26-17.58,12.55-17.82.57-.21-3.75-1.83-4.24-4.94-4.27-7.56-1.14-22.54,2.76-26.13-4.14Z" fill="#f08838" stroke-width="0"/><path d="m324.97,74.06c-1.61-15.66-18.46-65.34-6.05-74.06,10.92,8.65-2.65,29.87,4.35,46.01-.77,4.69,11.16,34.4,1.69,28.06Z" fill="#0a0b0c" stroke-width="0"/><path d="m250.73,181.9c-5.43.72-88.6,18.09-75.02,4.54,34.71-5.39,69.82-8.99,104.53-14.58,10.4-3.62,72.53-7.58,70.87-15.89-2.65-23.65-14.24-10.88-30.47-10.96-16.03-10.94,26.47-5.89,20.72-15.73-.99-5.74-13.31-22.39-2.66-22.84,35.34,63.93-2.44,50.45,62.16,49.31-6.58,5.7-40.82,3.89-35.48,14.75.02,5.1,2.42,9.12,1.58,14.99-17.25-24.72-4.7-19.67-36.32-14.63-15.44,5.49-33.1,4.84-49.28,8.25-10.09.25-20.85,4.82-30.61,2.79Z" fill="#080808" stroke-width="0"/><path d="m271.71,247.25c-.56-10.56,21.27-8.82,28.94-9.92,24.14-3.03,47.95-11.15,72.47-8.79-33.5,8.61-67.42,15.71-101.41,18.7Z" fill="#ea8c42" stroke-width="0"/><path d="m376.72,100.02c4.53,19.56,11.63,11.26,15.15,23.76.28,1.81.47,3.62.67,5.44-.3.76-1.52,1.06-.59,2.4,3.44,3.23,4.1,16.38-1.78,7.83-1.89-2.97-3.73-4.44-7.62-2.85-9.72,3.28-15.87-10.55-9.22-17.3,6.88-4.4-7.67-21.38,3.39-19.29Z" fill="#accb4f" stroke-width="0"/><path d="m260.79,223.79c-9.22-8.47,26.63-9.15,31.48-11.94,7.66.83,46.17-15.96,42.41-1.95-24.77,2.83-49.48,14.62-73.89,13.89Z" fill="#e78e4b" stroke-width="0"/><path d="m294,244.92c16.72-9.48,15.72,38.68,21.12,50.09-12.76-9.44-15.19-35.25-21.12-50.09Z" fill="#5da8af" stroke-width="0"/><path d="m334.68,209.9c-2.64-9.16-20.13-38.36-4.06-39.04,2.94,12.77,8.81,25.43,11.47,37.67,2.57,14.02-2.35,12.2-7.41,1.37Z" fill="#e43860" stroke-width="0"/><path d="m342.09,208.53c-7.92-11.34,47.6-13.87,56.45-14.96-18.41,6.62-37.45,10.72-56.45,14.96Z" fill="#e98d47" stroke-width="0"/><path d="m353.38,68.61c8.15-1.6,40.19-10.39,45.17-5.53-4.44,6.22-20.78,5.8-28.53,9.16-6.14,4.33-30.96,9.34-16.64-3.62Z" fill="#1c98cf" stroke-width="0"/><path d="m368.35,64.98c-7,8-11.77-42.58-.85-36.27,11.5,2.84-4.02,14.6.85,36.27Z" fill="#aecb56" stroke-width="0"/><path d="m324.97,74.06c4.76,2.17,21.98-9.18,17.58,4.54-11.2,4.45-24.96,7.37-37,7.39-7.32-10.99,14.13-7.03,19.42-11.92Z" fill="#2396cf" stroke-width="0"/><path d="m341.74,78.83c.11-2.48.9-5.03-.74-7.34,3.23-3.08.29-10.81,6.83-10.48,3.52.37,6.04,3.99,5.55,7.61-6.13,8.35-2.64,19.7-4.63,29.38-8.12,5.97-7.13-14.34-7-19.17Z" fill="#a9ca5d" stroke-width="0"/><path d="m367.06,158.28c-3.16.69-8.9,2.77-9.43-1.87-1.75-6.39-3.61-12.76-5.3-19.16-3.8-9.81-7.72-20.8-7.12-31.54,2.54-3.95,6.39.43,6.13,3.67,1.75,6.74,1.26,15.23,6.02,20.62,1.6,2.29-1.88,4.83.34,7.1.69,7.22,2.88,18.01,9.37,21.18Z" fill="#b1c766" stroke-width="0"/><path d="m287.07,219.91c10.82-7.79,9.99,10.92,13.58,17.43-11.42,6.7-13.48-8.99-13.58-17.43Z" fill="#61a7ab" stroke-width="0"/><path d="m392.55,129.21c-9.39-8.53,26.15-9.42,31.39-9.04-10.01,4.69-20.85,6.35-31.39,9.04Z" fill="#151716" stroke-width="0"/><path d="m357.7,137.1c-10.25-5.89,17.39-16.04,15.4-3.23-5.13,1.08-10.26,2.15-15.4,3.23Z" fill="#121512" stroke-width="0"/><path d="m365.93,73.33c7.16-5.19,6.16,16.88,9.29,21.7-6.71,7.46-9.96-16.86-9.29-21.7Z" fill="#b5cb78" stroke-width="0"/><path d="m365.53,173.82c-1.22-2.8-2.44-5.61-3.7-8.5,7.02-4.93,11.54,6.37,8.24,11.16-2.49,1.09-2.34-3.4-4.54-2.66Z" fill="#b1c868" stroke-width="0"/><path d="m371.14,95.58c1.42.32,2.83.49,4.07-.55,6.79,1.75,1.95,4.81-2.02,5.92-1.12.94-2.36,1.15-3.71.6-1.94-1.01.61-2.15-.04-3.24-21.22,4.07-12.93-6.79,1.7-2.72Z" fill="#3198bb" stroke-width="0"/><path d="m229.78,38.57c.76-1.66,1.09-3.85,2.35-4.9,11.25-9.39-2.71-21.31.63-31.34,7.52.01,15.34,9.01,17.15,16.58,3.03,11.35,15.71,17.23,5.15,31.71-5.3,10.12,2.54,21.6,2.77,32.3.6,3.98,2.19,5.59,6.08,4.99-.13,2.37-2.07,2.22-3.56,2.32-13.98,4.04-11.37-15.32-14.78-24.18-4.43-15.08-14.32,3.04-15.81-27.48Z" fill="#53abb3" stroke-width="0"/><path d="m229.78,38.57c7.9,16.91,2.8,35.68,6.39,53.6.07,8.07,4.16,15.72,2.29,23.86-10.94,8.25-10.8-16.23-11.03-22.69-3.9-19.88-7.8-39.75-11.7-59.63-2.21-4.46,2.29-6.19,5.54-3.26,3.64,1.9,4.3,6.85,8.5,8.11Z" fill="#a9548a" stroke-width="0"/><path d="m305.43,79.09c-2.72,13.88,18.93,8.11,14.41,24.38-8,12.18-6.39,17.06-2.08,30.59.65,1.82,1.45,3.78.48,5.8,1.87,7.78,7.96,15.96,9.38,24.95-16.48,7.18-17-40.84-24.19-51.33-2.85-3.82-6.36-8.52-4.46-13.55,3.14-6.47-.72-13.02.8-19.52-1.13-15.68-5.42-31.95-2.23-47.55,3.76-8.14,13.07,4.96,9.23,10.32-4.47,11.8-3.28,23.85-1.35,35.9Z" fill="#de3b65" stroke-width="0"/><path d="m227.45,93.35c3,5.66-.29,9.19-6.22,9.17-21.49,2.43-43.15,9.61-64.58,8.8-12.47-9.81,63.65-11.56,70.79-17.97Z" fill="#2296cb" stroke-width="0"/><path d="m299.77,80.42c7.9,13.37-30.41,11.38-38.46,14.86-8.65-.25-16.64,5.46-25.31,3.05-5.82-13.48,21.33-6.38,27.92-10.43,11.95-2.5,23.9-4.99,35.85-7.49Z" fill="#1e95ce" stroke-width="0"/><path d="m41.06,282.01c12.82-10.11,1.68-13.2,19.79-15.11-4.19-2.45-9.57.72-12.79-3.38,55.91,5.19,109.96-8.01,165.48-13.18,9.04.86,40.54-12.34,42.12-.61-24.85,3-49.09,8.43-73.61,10.08-20.23,4.63-42.08,2.19-61.38,8.37-20.78-3.74-44.87,2.08-66.7,1.57-6.58.98-4.25,12.14-12.89,12.25Z" fill="#e1904f" stroke-width="0"/><path d="m182.03,259.82c13.18-6.06,12.16,9.11,15.37,18.03,1.24,26.32-13.84-11.19-15.37-18.03Z" fill="#f9cf40" stroke-width="0"/><path d="m120.65,268.19c3.08-13.42,23.44,49.41,20.01,54.01-6.34-18.17-14.71-35.51-20.01-54.01Z" fill="#0f0f10" stroke-width="0"/><path d="m154.74,263.77c8.46-6.85,15.07,26.5,14.46,33.18-4.82-11.06-9.64-22.12-14.46-33.18Z" fill="#151515" stroke-width="0"/><path d="m212,255.8c4.53-2.13,9.61-.06,14.18-1.85.28,5.56-3.89,8.26-7.14,2.68-1.93-2.22-4.72-.17-7.05-.83Z" fill="#f3cf5e" stroke-width="0"/><path d="m122.21,261.23c-3.76,7.89-8.52-16.43-9.42-18.63-2.05-6.72-9.32-48.98-16.31-45.96-22.21-.77-47.35,4.73-68.16-1.99,8.55-7.51,23.54-9.68,35.33-6.24,10.19,3.39,20.87,3.88,31.55,4.16,6.75,1.51.37-13.58-1.18-15.57-5.73-3.6-38,4.04-42.51-1.96,8.57-8.53,24.82-10.73,36.98-7.15,7.75,2.74-1.87-14.6-1.4-18.6-.11-9.23,9.7-9.66,8.2.19.96,6.1-1.86,18.89,7.13,19.05,31.75,3.34,8.17-12.11,8.83-30.62,11.07-12.88,7.31,37.08,22.74,30,4.98.84,28.77-6.67,22.93,3.52-5.58,3.29-31.05-1.33-26.41,8.06,2.5,15.04,13.56,7.41,24.68,9.28,5.76,2.48-.74,5.79-3.92,5.93-4.59,1.89-16.81-2.78-13.51,5.93,2.67,10.12,5.82,20.08,9.51,29.87,5.03,8.26-3.16,13.55-5.38,2.87-5.9-9.15-5.39-40.92-19.63-36.81-4.59,2.22-18.14-3.05-15.41,5.46,5.31,19.63,11.99,39.44,15.36,59.22Z" fill="#040505" stroke-width="0"/><path d="m70.08,251.07c-8.39,10.89-11.76-.06-20.3-.51-3.75-.18-29.93,2.03-19.89-4.91,7.42-2.53,14.26-7.27,22.68-6.07,2.35.33,3.53-1.27,5.01-2.63,12.88-10.91,11.36,7.85,21.27,7.06,2.25-.27,10.07.9,4.78,3.48-4.31,2.04-11.31-1.58-13.56,3.58Z" fill="#f0883b" stroke-width="0"/><path d="m70.08,251.07c.97-6.15,10.07-1.91,15.28-5.05-5.44-2.85-14.82,2.22-14.28-8.42,6.46,14.91,36.12-2.11,42.69,8.05-14.22,2.49-30.47.1-43.69,5.42Z" fill="#e6904b" stroke-width="0"/><path d="m116.07,137.09c-1.67-1.22-3.12-1.05-4.32.69-9.77.94-20.92.16-24.65,11.5-6.11,1.23-13.58,1.45-14.07-6.74.8-9.55-62.99,3.72-68.65-6.33,17.94-18.09,46.08-.71,68.48-3.1,1.91.01,3.01-1.03,4.29-2.12,7.06-7.46,11.11.87,18.06,1.85,7.31.27,14.61-1.18,20.8-5,12.98,5.16,27.98-1.92,41.69-1.41,46.04-6.29,91.67-11.69,137.35-20.1,7.7-1.14,15.32,10.85-1.17,9.96-59.69,7.49-119.28,18.95-177.82,20.8Z" fill="#1c95cf" stroke-width="0"/><path d="m107.7,123.89c-4.42-.33-8.98-.11-11.5-5.08-21.27-2.56-45.2,4.83-67.28,1.56-17.53-6.04,29.6-15.76,34.9-10.23,9.43,2.73,19.13,1.74,28.75,1.97,4.55.3,3.68-5.4,6.89-7.42,5.56-5.59,12.77-4.16,15.36,3.18,1.9,6.82,26.54-1.68,33.67-.9,13.22,11.3-33.67,5.21-40.78,16.92Z" fill="#1c97d3" stroke-width="0"/><path d="m149.49,112.24c-.44-16.58-2.32-59.97,8.64-71.71,9.3,6.78,7.02,21.11,2.88,30.48-5.54,12.71-7.26,26.94-3.9,40.37,2.18,5.2,3.48,10.45.91,15.93-8.94,4.07-9.15-9.08-8.54-15.06Z" fill="#facf3e" stroke-width="0"/><path d="m178.28,102.32c-16.65,2.76-9.78-68.76-6.42-82.36,7.94-13.52,13.24,20.02,7.83,25.12-8.75,18.91-3.2,37.75-1.41,57.25Z" fill="#facf36" stroke-width="0"/><path d="m107.7,123.89c3.53-8.78,11.79-2.58,7.57,4.66-1.71,8.51-7.7.03-7.57-4.66Z" fill="#0d1117" stroke-width="0"/><path d="m253.58,225.12c-23.45,2.49-45.4,11.73-68.92,12.39-8.97-8.7,29.91-10.33,34.97-10.17,7.02.69,35-11.83,33.95-2.23Z" fill="#e3914e" stroke-width="0"/><path d="m184,233.05c1.35,6.99,6.59,13.74,6.88,21.59-12.53,4.76-13.7-5.01-15.88-15.17-5.08-10.07-1.51-28.41-12.32-33.72-7.18-.26-7.01-8.11-10.94-12.25,1.83-.98,6.66.91,4.09-4.28,1.54-2.85,4.91-8.99,1.27-14.19-1.6-2.62,1.95-6.1-1.02-8.07-2.36-5.28-9.77-38.73,2.1-33.65,7.43,13.11.18,41.62,15.51,51.14,3.92,2.36-1.08,4.58,3.15,7.58-3.8,14.67,6.63,26.91,7.16,41.01Z" fill="#fbcd34" stroke-width="0"/><path d="m199.36,165.23c-7.53,6.93,9.17,21.84-5.68,19.64-2.32-3.69-5.08-6.36-10-6.31-2.29.02-3.78-2.38-4.86-4.47-7.45-9.76,6.91-13.78.37-26.8-8.34-14.11,3.94-28.1,7.14-6.19.99,14.94,16.18,15.8,13.03,24.14Z" fill="#fcd039" stroke-width="0"/><path d="m334.87,108.79c-6.94-.86-13.4,2.95-20.4,2.28,3.39-8.37,8.52-10.49,16.81-11.51,4.41-.35,8.8-2.09,13.26-.94,4.06,1.31,7.09-4.51,11.21-.83,5.84,1.16,11.66-1.92,18.05-.3-6.8,6.35-15.19,8.82-24.54,7.91-1.32-.31-2.61-.55-3.58.77-3.16,3.53-8.11-.88-10.82,2.61Z" fill="#1d95cf" stroke-width="0"/><path d="m206.04,229.69c-1.06-13.67-8.68-26.68-10.75-40.5,7.78-4.08,8.92,3.96,10.73,9.63,4.93,8.56,4.13,24,13.61,28.52-4.53.78-9.06,1.56-13.59,2.34Z" fill="#face3b" stroke-width="0"/><path d="m247.62,157.29c-5.78,5.72,9.07,21.95-4.54,21.27-1.32-18.11-11.29-36.35-9.36-54.33,13.58-7,8.95,25.81,13.9,33.06Z" fill="#a6578d" stroke-width="0"/><path d="m280.78,177.92c-1.29,10.14,20.96,37.18,4.55,36.64-3.6-11.95-8.32-23.55-11.37-35.68,2.27-.32,4.55-.64,6.82-.95Z" fill="#5fa9ae" stroke-width="0"/><path d="m271.02,174.65c2.59-6.73-3.21-13.55-3.22-20.59,10.01-8.44,6.68,14.35,12.15,18.99-2.98.54-5.96,1.07-8.93,1.61Z" fill="#62a9ad" stroke-width="0"/><path d="m206.03,198.82c-2.1-3.24-3.08-6.92-4.22-10.54.68-.09,1.37-.19,2.05-.28-.33,3.82,2.69,6.96,2.17,10.82Z" fill="#efdd9b" stroke-width="0"/><path d="m331.05,81.27c-.08,3.98,9.92,22.71,1.04,18.85.09-4.98-9.69-19.98-1.04-18.85Z" fill="#121618" stroke-width="0"/><path d="m275.7,148.05c54.46-12.63,45.29-1.29-1.63,4.87-44.05,10.11-33.78-4.3,1.63-4.87Z" fill="#111011" stroke-width="0"/><path d="m310.14,117.7c-3.22-6.78-13.87-12.73-6.84-20.29,1.17-1.68-.94-5.82,2.96-5.06,3.61.71,8.91-.77,10.21,4.3,4.67,9.58-9.32,11.94-6.34,21.05Z" fill="#e4375d" stroke-width="0"/><path d="m301.79,79.01c-2.2-15.19-7.21-32.89-1.52-46.83,4.05.66,6.32,6.08,4.8,10.19-4.98,11.99.33,24.71-3.29,36.64Z" fill="#e4375d" stroke-width="0"/><path d="m175.96,125.05c-.95-5.47-6.32-19.12,3.57-16.81-.51,5.66,6.68,18.86-3.57,16.81Z" fill="#f0d151" stroke-width="0"/><path d="m260.79,93.99c-1.13,6.91,9.45,21.34-2.93,19.83-1.29-6.29-1.12-13.03-5.57-18.37,2.77-.86,5.54-1.71,8.49-1.46Z" fill="#5fa7ad" stroke-width="0"/><path d="m213.94,251.61c3.26-3.36-4.55-16.32-7.54-18.43,4.54-.73,9.07-1.46,13.6-2.19-3.62,9.38,14.16,21.06-6.06,20.62Z" fill="#facd3e" stroke-width="0"/><path d="m150.78,242.69c1.05,3.89,11.54,20.72,1.61,15.57-.83-3.42-10.01-21.54-1.61-15.57Z" fill="#231d1a" stroke-width="0"/><path d="m148.4,237.21c6.4,3.45,28.35-7.91,27.42,1.52-19.51,3.83-39.32,3.31-58.31,7.61-.44-1.53-.87-3.06-1.3-4.58,10.33-1.41,23.49-.44,32.18-4.55Z" fill="#dd9255" stroke-width="0"/><path d="m265.91,149.81c-.87-10.17-4.57-19.74-6.11-29.78,3.05.69,5.2-2.61,8.26-1.88-4.3,7.02,3.63,18.36,3.65,26.75.52,2.58,1.78,3.22,3.99,3.14-3.27.59-6.53,1.17-9.8,1.76Z" fill="#61a8ad" stroke-width="0"/><path d="m159.11,132.63c-1.39,1.83-3.95.68-5.97.9,1.56-3.17,3.83-1.6,5.97-.9Z" fill="#479299" stroke-width="0"/><path d="m163.43,166.12c3.46-.16,21.34-4.22,13.5,2.36-3.68-.55-16.15,4.75-13.5-2.36Z" fill="#2e2c28" stroke-width="0"/><path d="m199.11,161.44c12.91-2.39,26.8-8.38,39.88-6.71.57,1.35,1.14,2.69.03,4.05-4.66-.63-48.16,11.54-39.91,2.66Z" fill="#171616" stroke-width="0"/></svg>